HIERARCHY
ROOT Hips
{
	OFFSET 0.000000 0.000000 0.000000
	CHANNELS 6 Xposition Yposition Zposition Zrotation Yrotation Xrotation 
	JOINT LHipJoint
	{
		OFFSET 0.000000 0.000000 0.000000
		CHANNELS 3 Zrotation Yrotation Xrotation
		JOINT LeftUpLeg
		{
			OFFSET 1.363060 -1.794630 0.839290
			CHANNELS 3 Zrotation Yrotation Xrotation
			JOINT LeftLeg
			{
				OFFSET 2.448110 -6.726130 0.000000
				CHANNELS 3 Zrotation Yrotation Xrotation
				JOINT LeftFoot
				{
					OFFSET 2.562200 -7.039590 0.000000
					CHANNELS 3 Zrotation Yrotation Xrotation
					JOINT LeftToeBase
					{
						OFFSET 0.157640 -0.433110 2.322550
						CHANNELS 3 Zrotation Yrotation Xrotation
						End Site
						{
							OFFSET 0.000000 0.000000 0.000000
						}
					}
				}
			}
		}
	}
	JOINT RHipJoint
	{
		OFFSET 0.000000 0.000000 0.000000
		CHANNELS 3 Zrotation Yrotation Xrotation
		JOINT RightUpLeg
		{
			OFFSET -1.305520 -1.794630 0.839290
			CHANNELS 3 Zrotation Yrotation Xrotation
			JOINT RightLeg
			{
				OFFSET -2.542530 -6.985550 0.000000
				CHANNELS 3 Zrotation Yrotation Xrotation
				JOINT RightFoot
				{
					OFFSET -2.568260 -7.056230 0.000000
					CHANNELS 3 Zrotation Yrotation Xrotation
					JOINT RightToeBase
					{
						OFFSET -0.164730 -0.452590 2.363150
						CHANNELS 3 Zrotation Yrotation Xrotation
						End Site
						{
							OFFSET 0.000000 0.000000 0.000000
						}
					}
				}
			}
		}
	}
	JOINT LowerBack
	{
		OFFSET 0.000000 0.000000 0.000000
		CHANNELS 3 Zrotation Yrotation Xrotation
		JOINT Spine
		{
			OFFSET 0.028270 2.035590 -0.193380
			CHANNELS 3 Zrotation Yrotation Xrotation
			JOINT Spine1
			{
				OFFSET 0.056720 2.048850 -0.042750
				CHANNELS 3 Zrotation Yrotation Xrotation
				JOINT Neck
				{
					OFFSET 0.000000 0.000000 0.000000
					CHANNELS 3 Zrotation Yrotation Xrotation
					JOINT Neck1
					{
						OFFSET -0.054170 1.746240 0.172020
						CHANNELS 3 Zrotation Yrotation Xrotation
						JOINT Head
						{
							OFFSET 0.104070 1.761360 -0.123970
							CHANNELS 3 Zrotation Yrotation Xrotation
							End Site
							{
								OFFSET 0.000000 0.000000 0.000000
							}
						}
					}
				}
				JOINT LeftShoulder
				{
					OFFSET 0.000000 0.000000 0.000000
					CHANNELS 3 Zrotation Yrotation Xrotation
					JOINT LeftArm
					{
						OFFSET 3.362410 1.200890 -0.311210
						CHANNELS 3 Zrotation Yrotation Xrotation
						JOINT LeftForeArm
						{
							OFFSET 4.983000 -0.000000 -0.000000
							CHANNELS 3 Zrotation Yrotation Xrotation
							JOINT LeftHand
							{
								OFFSET 3.483560 -0.000000 -0.000000
								CHANNELS 3 Zrotation Yrotation Xrotation
								JOINT LeftFingerBase
								{
									OFFSET 0.000000 0.000000 0.000000
									CHANNELS 3 Zrotation Yrotation Xrotation
									JOINT LeftHandIndex1
									{
										OFFSET 0.715260 -0.000000 -0.000000
										CHANNELS 3 Zrotation Yrotation Xrotation
										End Site
										{
											OFFSET 0.000000 0.000000 0.000000
										}
									}
								}
								JOINT LThumb
								{
									OFFSET 0.000000 0.000000 0.000000
									CHANNELS 3 Zrotation Yrotation Xrotation
									End Site
									{
										OFFSET 0.000000 0.000000 0.000000
									}
								}
							}
						}
					}
				}
				JOINT RightShoulder
				{
					OFFSET 0.000000 0.000000 0.000000
					CHANNELS 3 Zrotation Yrotation Xrotation
					JOINT RightArm
					{
						OFFSET -3.136600 1.374050 -0.404650
						CHANNELS 3 Zrotation Yrotation Xrotation
						JOINT RightForeArm
						{
							OFFSET -5.241900 -0.000000 -0.000000
							CHANNELS 3 Zrotation Yrotation Xrotation
							JOINT RightHand
							{
								OFFSET -3.444170 -0.000000 -0.000000
								CHANNELS 3 Zrotation Yrotation Xrotation
								JOINT RightFingerBase
								{
									OFFSET 0.000000 0.000000 0.000000
									CHANNELS 3 Zrotation Yrotation Xrotation
									JOINT RightHandIndex1
									{
										OFFSET -0.622530 -0.000000 -0.000000
										CHANNELS 3 Zrotation Yrotation Xrotation
										End Site
										{
											OFFSET 0.000000 0.000000 0.000000
										}
									}
								}
								JOINT RThumb
								{
									OFFSET 0.000000 0.000000 0.000000
									CHANNELS 3 Zrotation Yrotation Xrotation
									End Site
									{
										OFFSET 0.000000 0.000000 0.000000
									}
								}
							}
						}
					}
				}
			}
		}
	}
}
MOTION
Frames: 5
Frame Time: 0.008333
0.015477 18.095164 -30.821454 -6.625840 -3.001949 4.393955 -2.574722 1.785883 2.641378 -9.716002 -4.712881 -30.140344 -0.003419 8.019869 23.955505 0.946273 -0.295455 17.430902 0.216800 -2.997300 -8.271300 -0.708527 -3.633305 4.449225 30.008302 4.698364 4.896130 -15.848383 -16.638954 75.219948 0.069533 -21.686363 27.480416 -1.134100 -6.763400 19.016400 4.426228 1.421427 9.428160 1.675349 2.047129 14.485579 -2.976371 1.728650 -13.310996 -2.359605 0.416123 -2.771812 1.237453 0.341992 -8.326555 0.085700 0.146100 -3.421600 -4.809936 5.779299 -2.601304 -79.494586 22.011370 42.820472 121.297467 -62.697272 -88.316784 0.630513 -1.047261 -25.761764 39.395760 5.297921 5.593300 -7.125000 0.000000 0.000000 10.820000 38.616800 -1.725100 5.066203 -4.543915 -2.887820 73.871264 -11.224631 47.767814 -81.384854 61.328362 -62.141419 1.822059 1.376972 0.491260 -36.553005 30.297219 -20.318500 7.125000 0.000000 0.000000 -4.611000 3.912500 -4.930400 
0.024320 17.970044 -30.324896 -6.194339 -2.194973 3.948702 -2.491996 1.911000 2.804144 -10.661621 -5.030405 -29.614069 0.631091 9.014170 27.278931 0.982087 -1.943066 13.728977 0.124400 -2.274000 -6.263600 -0.800283 -3.652568 4.358828 29.248846 3.814721 2.219826 -17.422036 -16.970130 80.414899 0.336451 -21.933441 25.687593 -1.261300 -7.119100 20.068800 4.040980 1.012804 9.771051 1.469501 1.499212 14.700960 -2.687122 1.467684 -13.502093 -2.431456 0.438466 -2.934319 1.407369 0.375432 -8.128511 0.142200 0.159300 -3.346600 -4.823825 5.716379 -2.514473 -79.430181 19.890459 43.308340 121.986265 -62.427225 -88.824047 0.639300 -1.017370 -26.030909 39.837528 4.561272 5.059900 -7.125000 0.000000 0.000000 11.104300 37.697000 -2.026300 5.117674 -4.507210 -3.009494 73.998196 -11.848168 47.400602 -77.467039 60.285474 -58.775759 1.879255 1.364421 0.866560 -36.663745 29.885448 -20.162900 7.125000 0.000000 0.000000 -4.797600 3.490300 -5.098300 
0.052560 17.845729 -29.824218 -5.692781 -1.223928 3.376121 -2.488668 2.063339 2.984457 -11.554227 -5.790486 -28.821540 1.216425 9.795903 30.037363 1.074795 -3.331642 10.743661 0.029800 -1.114900 -3.064900 -0.881591 -3.677122 4.298757 28.239357 2.763393 -0.406901 -18.910974 -17.165912 85.326618 0.562591 -21.679426 23.776163 -1.356900 -7.373500 20.826600 4.088054 0.401545 9.709127 0.884229 0.765060 15.453647 -2.616929 1.087989 -13.229210 -2.386913 0.541813 -3.299988 1.650342 0.519585 -8.212484 0.195100 0.213900 -3.323600 -4.783721 5.580485 -2.426742 -79.434125 17.207203 43.553571 122.740424 -62.097123 -89.382491 0.651116 -0.992312 -26.239557 40.013694 4.188110 4.766500 -7.125000 0.000000 0.000000 11.193900 37.213600 -2.177900 5.189999 -4.448095 -3.145220 74.367282 -12.119476 46.834369 -73.913384 59.237943 -55.603650 1.907933 1.332730 1.414647 -36.433424 29.539516 -19.825500 7.125000 0.000000 0.000000 -4.745500 3.062600 -5.009100 
0.073263 17.724931 -29.336705 -5.260702 -0.623700 2.815628 -2.468254 2.180628 3.104477 -12.370198 -6.344897 -28.207798 1.796191 10.489892 32.503621 1.073047 -3.871519 7.862115 0.044900 -1.368000 -3.762000 -0.957036 -3.692727 4.228842 27.289380 2.174606 -2.999721 -20.342461 -17.259722 90.042383 0.643658 -20.884260 22.252259 -1.392100 -7.464500 21.099100 3.968348 -0.084070 10.143629 0.392005 0.195484 15.708333 -2.488491 0.787862 -13.362710 -2.321117 0.767037 -2.720253 1.817882 0.783406 -8.800933 0.230500 0.322900 -3.602300 -4.768036 5.487742 -2.346446 -79.417134 14.956806 43.670652 123.829285 -61.663018 -90.170861 0.676598 -0.979104 -26.420437 39.081794 3.851353 4.323200 -7.125000 0.000000 0.000000 10.337300 36.696400 -2.139300 5.251714 -4.446350 -3.277620 74.732900 -13.027327 46.070502 -71.093406 58.394376 -52.969745 1.937296 1.231241 1.948814 -36.423483 30.364091 -20.381900 7.125000 0.000000 0.000000 -4.544200 4.075400 -4.870500 
0.077886 17.609259 -28.872809 -4.530078 -0.031298 2.315837 -2.501143 2.319371 3.257323 -13.372419 -6.965319 -26.920501 2.344216 11.039960 34.654605 1.010596 -3.811077 4.568792 0.130600 -2.329800 -6.418000 -0.992540 -3.730106 4.137988 25.967739 1.761527 -5.775764 -21.725810 -17.293309 94.546487 0.634868 -20.094902 21.242301 -1.712500 -8.239700 23.444400 3.044974 -0.413055 11.393085 0.179823 -0.290765 15.487513 -1.897025 0.590919 -14.172909 -2.445103 0.898530 -2.161066 1.926603 0.925532 -9.361818 0.284000 0.384300 -3.891400 -4.797438 5.458616 -2.252958 -79.608919 12.593321 43.990893 124.338137 -61.435544 -90.571881 0.699268 -0.988000 -26.428741 38.149359 3.864779 4.193000 -7.125000 0.000000 0.000000 9.533600 36.656800 -1.978400 5.305517 -4.450127 -3.392296 74.772888 -14.162004 45.131330 -68.261371 57.549354 -50.233939 1.936219 1.127120 2.474931 -37.074969 30.927850 -21.201400 7.125000 0.000000 0.000000 -4.757700 5.002000 -5.171600 
